<?xml version="1.0" encoding="iso-8859-1"?>
<!-- Generator: Adobe Illustrator 18.0.0, SVG Export Plug-In . SVG Version: 6.00 Build 0)  -->
<!DOCTYPE svg PUBLIC "-//W3C//DTD SVG 1.1//EN" "http://www.w3.org/Graphics/SVG/1.1/DTD/svg11.dtd">
<svg version="1.1" id="Capa_1" xmlns="http://www.w3.org/2000/svg" xmlns:xlink="http://www.w3.org/1999/xlink" x="0px" y="0px"
	 viewBox="0 0 60 60" style="enable-background:new 0 0 60 60;" xml:space="preserve">
<g>
	<path style="fill:#556080;" d="M44,60c-0.552,0-1-0.447-1-1V47c0-0.553,0.448-1,1-1s1,0.447,1,1v12C45,59.553,44.552,60,44,60z"/>
	<path style="fill:#556080;" d="M16,60c-0.552,0-1-0.447-1-1V47c0-0.553,0.448-1,1-1s1,0.447,1,1v12C17,59.553,16.552,60,16,60z"/>
	<path style="fill:#556080;" d="M44,14c-0.552,0-1-0.447-1-1V1c0-0.553,0.448-1,1-1s1,0.447,1,1v12C45,13.553,44.552,14,44,14z"/>
	<path style="fill:#556080;" d="M16,14c-0.552,0-1-0.447-1-1V1c0-0.553,0.448-1,1-1s1,0.447,1,1v12C17,13.553,16.552,14,16,14z"/>
	<path style="fill:#26B99A;" d="M34,44.541V15.458C34,14.101,35.101,13,36.458,13h15.083C52.899,13,54,14.101,54,15.458v29.083
		C54,45.899,52.899,47,51.542,47H36.458C35.101,47,34,45.899,34,44.541z"/>
	<path style="fill:#7383BF;" d="M6,10.458v39.083C6,50.899,7.101,52,8.458,52h15.083C24.899,52,26,50.899,26,49.541V10.458
		C26,9.101,24.899,8,23.542,8H8.458C7.101,8,6,9.101,6,10.458z"/>
</g>
<g>
</g>
<g>
</g>
<g>
</g>
<g>
</g>
<g>
</g>
<g>
</g>
<g>
</g>
<g>
</g>
<g>
</g>
<g>
</g>
<g>
</g>
<g>
</g>
<g>
</g>
<g>
</g>
<g>
</g>
</svg>
