<?xml version="1.0" encoding="iso-8859-1"?>
<!-- Generator: Adobe Illustrator 19.0.0, SVG Export Plug-In . SVG Version: 6.00 Build 0)  -->
<svg version="1.1" id="Layer_1" xmlns="http://www.w3.org/2000/svg" xmlns:xlink="http://www.w3.org/1999/xlink" x="0px" y="0px"
	 viewBox="0 0 512 512" style="enable-background:new 0 0 512 512;" xml:space="preserve">
<path style="fill:#2D2D2D;" d="M128,0c-8.448,0-15.36,6.912-15.36,15.36v481.28c0,8.448,6.912,15.36,15.36,15.36h256
	c8.448,0,15.36-6.912,15.36-15.36V15.36C399.36,6.912,392.448,0,384,0H128z M304.552,15.52c2.832,0,5.128,2.296,5.128,5.128
	s-2.296,5.128-5.128,5.128s-5.128-2.296-5.128-5.128S301.72,15.52,304.552,15.52z M286.928,15.52c2.832,0,5.128,2.296,5.128,5.128
	s-2.296,5.128-5.128,5.128s-5.128-2.296-5.128-5.128S284.096,15.52,286.928,15.52z M207.44,15.52h45.44
	c2.816,0,5.12,2.304,5.12,5.12s-2.304,5.12-5.12,5.12h-45.44c-2.816,0-5.12-2.304-5.12-5.12S204.624,15.52,207.44,15.52z
	 M286.72,481.28h-61.44c-2.816,0-5.12-2.304-5.12-5.12s2.304-5.12,5.12-5.12h61.44c2.816,0,5.12,2.304,5.12,5.12
	S289.536,481.28,286.72,481.28z M384,168.448v54.288V450.56H128V284.056v-54.288V40.96h256V168.448z"/>
<g>
	<path style="fill:#C9C9C9;" d="M286.72,471.04h-61.44c-2.816,0-5.12,2.304-5.12,5.12s2.304,5.12,5.12,5.12h61.44
		c2.816,0,5.12-2.304,5.12-5.12S289.536,471.04,286.72,471.04z"/>
	<path style="fill:#C9C9C9;" d="M207.44,25.76h45.44c2.816,0,5.12-2.304,5.12-5.12s-2.304-5.12-5.12-5.12h-45.44
		c-2.816,0-5.12,2.304-5.12,5.12S204.624,25.76,207.44,25.76z"/>
	<circle style="fill:#C9C9C9;" cx="286.928" cy="20.648" r="5.128"/>
	<circle style="fill:#C9C9C9;" cx="304.56" cy="20.648" r="5.128"/>
</g>
<g>
	<polygon style="fill:#8AD5DD;" points="180.832,231.232 128,284.056 128,450.56 384,450.56 384,222.736 278.176,328.568 	"/>
	<polygon style="fill:#8AD5DD;" points="128,229.768 180.832,176.936 278.176,274.272 384,168.448 384,40.96 128,40.96 	"/>
</g>
<polygon style="fill:#FFFFFF;" points="180.832,176.936 128,229.768 128,284.056 180.832,231.232 278.176,328.568 384,222.736 
	384,168.448 278.176,274.272 "/>
<g>
</g>
<g>
</g>
<g>
</g>
<g>
</g>
<g>
</g>
<g>
</g>
<g>
</g>
<g>
</g>
<g>
</g>
<g>
</g>
<g>
</g>
<g>
</g>
<g>
</g>
<g>
</g>
<g>
</g>
</svg>
